Swedish House Mafia - Dont You Worry Child {M4A+MP4} (1080p) x264 [VX] [P2PDL]
 
http://www.shotpix.com/images/71472964248046434466.jpg

Release Title: Swedish House Mafia - Dont You Worry Child (2012)

Music video by Swedish House Mafia Performing Dont You Worry Child

                          1080p Full HD MP4 Video
                                    +
                          128 Kbps/VBR M4A Audio

General
Format                         : MPEG-4
Format profile                 : Base Media / Version 2
Codec ID                       : mp42
File size                      : 54.8 MiB
Duration                       : 5mn 34s
Overall bit rate mode          : Variable

Video
ID                             : 1
Format                         : AVC
Format/Info                    : Advanced Video Codec
Bit rate                       : 1 250 Kbps
Width                          : 1 920 pixels
Height                         : 1 080 pixels
Display aspect ratio           : 16:9
Frame rate mode                : Constant
Frame rate                     : 25.000 fps
Color space                    : YUV
Chroma subsampling             : 4:2:0
Bit depth                      : 8 bits
Scan type                      : Progressive
Bits/(Pixel*Frame)             : 0.024
Stream size                    : 49.6 MiB (90%)
Writing library                : x264 core 128

Audio
ID                             : 2
Format                         : AAC
Bit rate mode                  : Variable
Bit rate                       : 127 Kbps
Channel(s)                     : 2 channels
Channel positions              : Front: L R
Sampling rate                  : 48.0 KHz
Stream size                    : 5.09 MiB (9%)

Subtitles                      : No

Screens:
 
http://www.shotpix.com/images/74494750579330436869.jpg 
http://www.shotpix.com/images/76714154309167583295.jpg

Thumbs:
 
http://www.shotpix.com/images/41000089416330023821.jpg
------------------------------------------------------------------------

Notes:

* Recommended to use latest version VLC Media Player.
* Install shark007 codecs in case of any kind of problem in playback (For non-VLC Media Player users).
* Alternatively, install Core AVC codecs, the fastest decoder that there is coupled with Community Center Codec Pack and play on Windows Media Player Classic.
* Read NFO
* Help in seeding as much as you can. 

Greets to: VYTO, a2zRG, Azizex666, staff members at ExtraTorrent, TPB,KAT, 1337x, PublicHD, Ahashare,
SilverTorrent, TorrentMafia, Digtorrent, BTScene, P2PDL, and all others

Encoder Notes: Looking For Early Access To Anything You Can Provide DVDScr, R5, DVDRips, BluRay, Direct Audio, Early Music
Releases, Seedboxes, Links, Dedicated Servers anything u can provide, Advance / Promo CDs/DVDs. If You Got anything to
offer contact me at "prg@hush.com"

Facebook Fan Page: www . facebook . com / p2pdl

                               Enjoy!